<mxfile host="drawio-plugin" modified="2024-02-02T03:42:02.413Z" agent="5.0 (Windows NT 10.0; Win64; x64) AppleWebKit/537.36 (KHTML, like Gecko) Chrome/111.0.0.0 Safari/537.36" etag="wOb1ncMoiilXmINlFAYX" version="20.5.3" type="embed"><diagram id="23iRSUPoRavnBvh4doch" name="Page-1"><mxGraphModel dx="1378" dy="895" grid="1" gridSize="10" guides="1" tooltips="1" connect="1" arrows="1" fold="1" page="1" pageScale="1" pageWidth="827" pageHeight="1169" math="0" shadow="0"><root><mxCell id="0"/><mxCell id="1" parent="0"/><mxCell id="17" style="edgeStyle=orthogonalEdgeStyle;rounded=0;orthogonalLoop=1;jettySize=auto;html=1;entryX=0.5;entryY=0;entryDx=0;entryDy=0;fontFamily=Architects Daughter;fontSource=https%3A%2F%2Ffonts.googleapis.com%2Fcss%3Ffamily%3DArchitects%2BDaughter;fontSize=20;fontColor=#FFFFFF;startSize=0;" parent="1" source="15" target="16" edge="1"><mxGeometry relative="1" as="geometry"/></mxCell><mxCell id="15" value="&lt;font color=&quot;#ffffff&quot;&gt;req-client&lt;/font&gt;" style="ellipse;whiteSpace=wrap;html=1;rounded=1;sketch=1;hachureGap=4;jiggle=2;strokeColor=#D0CEE2;fontFamily=Architects Daughter;fontSource=https%3A%2F%2Ffonts.googleapis.com%2Fcss%3Ffamily%3DArchitects%2BDaughter;fontSize=20;fontColor=#1A1A1A;startSize=0;fillColor=#5D7F99;" parent="1" vertex="1"><mxGeometry x="320" y="20" width="120" height="80" as="geometry"/></mxCell><mxCell id="18" style="edgeStyle=orthogonalEdgeStyle;rounded=0;orthogonalLoop=1;jettySize=auto;html=1;exitX=1;exitY=0;exitDx=0;exitDy=0;entryX=0;entryY=1;entryDx=0;entryDy=0;fontFamily=Architects Daughter;fontSource=https%3A%2F%2Ffonts.googleapis.com%2Fcss%3Ffamily%3DArchitects%2BDaughter;fontSize=20;fontColor=#FFFFFF;startSize=0;" parent="1" source="16" target="15" edge="1"><mxGeometry relative="1" as="geometry"/></mxCell><mxCell id="23" style="edgeStyle=orthogonalEdgeStyle;rounded=0;orthogonalLoop=1;jettySize=auto;html=1;exitX=1;exitY=1;exitDx=0;exitDy=0;entryX=0;entryY=0;entryDx=0;entryDy=0;fontFamily=Architects Daughter;fontSource=https%3A%2F%2Ffonts.googleapis.com%2Fcss%3Ffamily%3DArchitects%2BDaughter;fontSize=20;fontColor=#FFFFFF;startSize=0;" parent="1" source="16" target="21" edge="1"><mxGeometry relative="1" as="geometry"/></mxCell><mxCell id="16" value="req-receive-server&lt;br&gt;req-send-server" style="ellipse;whiteSpace=wrap;html=1;aspect=fixed;rounded=1;sketch=1;hachureGap=4;jiggle=2;strokeColor=#D0CEE2;fontFamily=Architects Daughter;fontSource=https%3A%2F%2Ffonts.googleapis.com%2Fcss%3Ffamily%3DArchitects%2BDaughter;fontSize=20;fontColor=#FFFFFF;startSize=0;fillColor=#5D7F99;" parent="1" vertex="1"><mxGeometry x="50" y="190" width="230" height="230" as="geometry"/></mxCell><mxCell id="19" value="PUBLIC NET" style="shape=callout;whiteSpace=wrap;html=1;perimeter=calloutPerimeter;rounded=1;sketch=1;hachureGap=4;jiggle=2;strokeColor=#D0CEE2;fontFamily=Architects Daughter;fontSource=https%3A%2F%2Ffonts.googleapis.com%2Fcss%3Ffamily%3DArchitects%2BDaughter;fontSize=20;fontColor=#FFFFFF;startSize=0;fillColor=#5D7F99;position2=0;" parent="1" vertex="1"><mxGeometry x="270" y="230" width="120" height="110" as="geometry"/></mxCell><mxCell id="22" style="edgeStyle=orthogonalEdgeStyle;rounded=0;orthogonalLoop=1;jettySize=auto;html=1;fontFamily=Architects Daughter;fontSource=https%3A%2F%2Ffonts.googleapis.com%2Fcss%3Ffamily%3DArchitects%2BDaughter;fontSize=20;fontColor=#FFFFFF;startSize=0;" parent="1" source="21" target="16" edge="1"><mxGeometry relative="1" as="geometry"/></mxCell><mxCell id="28" style="edgeStyle=orthogonalEdgeStyle;rounded=0;orthogonalLoop=1;jettySize=auto;html=1;exitX=0.5;exitY=1;exitDx=0;exitDy=0;fontFamily=Architects Daughter;fontSource=https%3A%2F%2Ffonts.googleapis.com%2Fcss%3Ffamily%3DArchitects%2BDaughter;fontSize=20;fontColor=#FFFFFF;startSize=0;" parent="1" source="21" target="25" edge="1"><mxGeometry relative="1" as="geometry"/></mxCell><mxCell id="21" value="req-receive-client&lt;br&gt;req-send-client" style="ellipse;whiteSpace=wrap;html=1;aspect=fixed;rounded=1;sketch=1;hachureGap=4;jiggle=2;strokeColor=#D0CEE2;fontFamily=Architects Daughter;fontSource=https%3A%2F%2Ffonts.googleapis.com%2Fcss%3Ffamily%3DArchitects%2BDaughter;fontSize=20;fontColor=#FFFFFF;startSize=0;fillColor=#5D7F99;" parent="1" vertex="1"><mxGeometry x="340" y="480" width="230" height="230" as="geometry"/></mxCell><mxCell id="29" style="edgeStyle=orthogonalEdgeStyle;rounded=0;orthogonalLoop=1;jettySize=auto;html=1;exitX=1;exitY=0;exitDx=0;exitDy=0;entryX=1;entryY=1;entryDx=0;entryDy=0;fontFamily=Architects Daughter;fontSource=https%3A%2F%2Ffonts.googleapis.com%2Fcss%3Ffamily%3DArchitects%2BDaughter;fontSize=20;fontColor=#FFFFFF;startSize=0;" parent="1" source="25" target="21" edge="1"><mxGeometry relative="1" as="geometry"/></mxCell><mxCell id="25" value="application" style="ellipse;whiteSpace=wrap;html=1;rounded=1;sketch=1;hachureGap=4;jiggle=2;strokeColor=#D0CEE2;fontFamily=Architects Daughter;fontSource=https%3A%2F%2Ffonts.googleapis.com%2Fcss%3Ffamily%3DArchitects%2BDaughter;fontSize=20;fontColor=#FFFFFF;startSize=0;fillColor=#5D7F99;" parent="1" vertex="1"><mxGeometry x="395" y="830" width="120" height="80" as="geometry"/></mxCell><mxCell id="32" value="INTRANET" style="text;html=1;strokeColor=none;fillColor=none;align=center;verticalAlign=middle;whiteSpace=wrap;rounded=0;sketch=1;hachureGap=4;jiggle=2;fontFamily=Architects Daughter;fontSource=https%3A%2F%2Ffonts.googleapis.com%2Fcss%3Ffamily%3DArchitects%2BDaughter;fontSize=20;fontColor=#FFFFFF;startSize=0;" parent="1" vertex="1"><mxGeometry x="630" y="720" width="60" height="30" as="geometry"/></mxCell><mxCell id="33" value="" style="shape=flexArrow;endArrow=classic;html=1;rounded=0;fontFamily=Architects Daughter;fontSource=https%3A%2F%2Ffonts.googleapis.com%2Fcss%3Ffamily%3DArchitects%2BDaughter;fontSize=20;fontColor=#FFFFFF;startSize=0;exitX=0.25;exitY=0;exitDx=0;exitDy=0;" parent="1" source="32" target="21" edge="1"><mxGeometry width="50" height="50" relative="1" as="geometry"><mxPoint x="640" y="680" as="sourcePoint"/><mxPoint x="690" y="630" as="targetPoint"/></mxGeometry></mxCell><mxCell id="34" value="" style="shape=flexArrow;endArrow=classic;html=1;rounded=0;fontFamily=Architects Daughter;fontSource=https%3A%2F%2Ffonts.googleapis.com%2Fcss%3Ffamily%3DArchitects%2BDaughter;fontSize=20;fontColor=#FFFFFF;startSize=0;entryX=1.013;entryY=0.431;entryDx=0;entryDy=0;entryPerimeter=0;exitX=0;exitY=1;exitDx=0;exitDy=0;" parent="1" source="32" target="25" edge="1"><mxGeometry width="50" height="50" relative="1" as="geometry"><mxPoint x="650" y="670" as="sourcePoint"/><mxPoint x="580" y="790" as="targetPoint"/></mxGeometry></mxCell><mxCell id="35" value="Ⅰ" style="shape=display;whiteSpace=wrap;html=1;rounded=1;sketch=1;hachureGap=4;jiggle=2;strokeColor=#D0CEE2;fontFamily=Architects Daughter;fontSource=https%3A%2F%2Ffonts.googleapis.com%2Fcss%3Ffamily%3DArchitects%2BDaughter;fontSize=20;fontColor=#FFFFFF;startSize=0;fillColor=#5D7F99;" parent="1" vertex="1"><mxGeometry x="180" y="420" width="80" height="40" as="geometry"/></mxCell><mxCell id="36" value="Ⅱ" style="shape=display;whiteSpace=wrap;html=1;rounded=1;sketch=1;hachureGap=4;jiggle=2;strokeColor=#D0CEE2;fontFamily=Architects Daughter;fontSource=https%3A%2F%2Ffonts.googleapis.com%2Fcss%3Ffamily%3DArchitects%2BDaughter;fontSize=20;fontColor=#FFFFFF;startSize=0;fillColor=#5D7F99;rotation=90;" parent="1" vertex="1"><mxGeometry x="290" y="630" width="80" height="40" as="geometry"/></mxCell><mxCell id="37" value="Ⅲ" style="shape=display;whiteSpace=wrap;html=1;rounded=1;sketch=1;hachureGap=4;jiggle=2;strokeColor=#D0CEE2;fontFamily=Architects Daughter;fontSource=https%3A%2F%2Ffonts.googleapis.com%2Fcss%3Ffamily%3DArchitects%2BDaughter;fontSize=20;fontColor=#FFFFFF;startSize=0;fillColor=#5D7F99;" parent="1" vertex="1"><mxGeometry x="260" y="350" width="80" height="40" as="geometry"/></mxCell><mxCell id="38" value="Ⅳ" style="shape=display;whiteSpace=wrap;html=1;rounded=1;sketch=1;hachureGap=4;jiggle=2;strokeColor=#D0CEE2;fontFamily=Architects Daughter;fontSource=https%3A%2F%2Ffonts.googleapis.com%2Fcss%3Ffamily%3DArchitects%2BDaughter;fontSize=20;fontColor=#FFFFFF;startSize=0;fillColor=#5D7F99;rotation=-180;" parent="1" vertex="1"><mxGeometry x="270" y="490" width="80" height="40" as="geometry"/></mxCell><mxCell id="39" value="Ⅰ （）&amp;nbsp; Ⅱ（）Ⅲ（1）Ⅳ（）" style="text;html=1;strokeColor=none;fillColor=none;align=center;verticalAlign=middle;whiteSpace=wrap;rounded=0;sketch=1;hachureGap=4;jiggle=2;fontFamily=Architects Daughter;fontSource=https%3A%2F%2Ffonts.googleapis.com%2Fcss%3Ffamily%3DArchitects%2BDaughter;fontSize=20;fontColor=#FFFFFF;startSize=0;" parent="1" vertex="1"><mxGeometry x="50" y="760" width="310" height="30" as="geometry"/></mxCell></root></mxGraphModel></diagram></mxfile>